<svg xmlns="http://www.w3.org/2000/svg" width="260" height="315" fill="none" viewBox="0 0 260 315"><path fill="#BDE4F3" d="M130 48.7479L186.206 9.2195V9.22369L167.328 43.1788L161.009 54.5433L160.661 55.1635L150.403 73.6056L130 48.7479Z"/><path fill="#677D8B" d="M150.407 73.6093V73.6135L147.453 88.1376L130 48.7474L150.403 73.6051V73.6093H150.407Z"/><path fill="#8AB4E2" d="M167.731 92.0477L147.457 88.1381H147.453L150.407 73.614L167.731 92.0477Z"/><path fill="#BBC9D2" d="M167.731 92.0485L147.457 119.148V88.1388L167.731 92.0485Z"/><path fill="#DEF1F9" d="M195.58 107.415L176.2 139.12L179.41 114.258L195.58 107.415Z"/><path fill="#DEF1F9" d="M189.546 103.152L179.409 114.257L176.455 102.662L189.546 103.152Z"/><path fill="#9BB2C0" d="M195.58 107.414L179.41 114.257L189.546 103.152L195.58 107.414Z"/><path fill="#7C9DB0" d="M204.82 81.0142L195.58 107.414L189.546 103.152L197.211 92.0476L204.82 81.0142Z"/><path fill="#2B5D7E" d="M172.994 70.5379L150.407 73.6095H150.403V73.6053L160.662 55.1632L172.994 70.5379Z"/><path fill="#8FC7D8" d="M176.2 139.12L147.457 119.148L167.731 92.0483L176.2 139.12Z"/><path fill="#AFE4F5" d="M185.888 176.556L147.457 119.147L176.2 139.119L185.888 176.556Z"/><path fill="#E8F7FD" d="M195.58 107.414L185.888 176.556L176.2 139.119L195.58 107.414Z"/><path fill="#fff" d="M239.982 136.885L185.888 176.556L195.58 107.414L239.982 136.885Z"/><path fill="#315566" d="M179.41 79.0574L178.437 90.2668L167.731 92.0477L179.41 79.0574Z"/><path fill="#C4EBED" d="M179.41 114.258L176.2 139.12L167.731 92.0483L179.41 114.258Z"/><path fill="#EEF8FC" d="M179.41 114.257L167.731 92.0475L176.455 102.662L179.41 114.257Z"/><path fill="#2B3C48" d="M178.437 90.2664L176.455 102.662L167.731 92.0474L178.437 90.2664Z"/><path fill="#231F20" d="M189.546 103.153L176.455 102.663L178.437 90.2674L189.546 103.153Z"/><path fill="#7C9DB0" d="M172.994 70.5382L167.731 92.0477L150.407 73.614V73.6098L172.994 70.5382Z"/><path fill="#76ABCC" d="M179.41 79.0574L167.731 92.0477L172.994 70.5382L179.41 79.0574Z"/><path fill="#469999" d="M189.542 69.1381V69.1423L179.409 79.0569L172.994 70.5377L189.542 69.1381Z"/><path fill="#231F20" d="M188.872 79.0573L178.437 90.2667L179.41 79.0573H188.872Z"/><path fill="#5F8BA2" d="M189.546 69.1423L188.872 79.0569H179.41L189.542 69.1423H189.546Z"/><path fill="#BDE4F3" d="M197.211 92.0477L188.872 89.1144V79.0574L189.546 69.1428L197.211 92.0477Z"/><path fill="#2B3C48" d="M189.546 103.153L178.437 90.2674L188.872 89.115L189.546 103.153Z"/><path fill="#EFF8FC" d="M200.328 18.2961L167.328 43.179L186.206 9.22383V9.21964L186.211 9.21544L200.328 18.2961Z"/><path fill="#335666" d="M172.994 70.5389L160.661 55.1642L161.009 54.544L167.328 43.1795L172.994 70.5389Z"/><path fill="#677D8B" d="M189.542 69.1393L172.994 70.5389L167.328 43.1795L189.542 69.1393Z"/><path fill="#fff" d="M200.328 18.2968L189.546 69.1394H189.542L167.328 43.1796L200.328 18.2968Z"/><path fill="#DEF1F9" d="M224.968 26.1958L189.546 69.1394L200.328 18.2968L224.968 26.1958Z"/><path fill="#CEEBF6" d="M226.12 43.716L189.546 69.1394L224.968 26.1958L226.12 43.716Z"/><path fill="#9BB2C0" d="M204.82 81.0143L197.21 92.0477L189.546 69.1428H189.542V69.1386H189.546L204.82 81.0143Z"/><path fill="#BDE4F3" d="M226.12 43.7148L204.82 81.0139L189.546 69.1382L226.12 43.7148Z"/><path fill="#E8D5E8" d="M246.909 2.7911L224.968 26.1947L230.164 0.000261307L246.909 2.7911Z"/><path fill="#BDE4F3" d="M230.164 2.28882e-05L200.327 18.2984L224.967 26.1974L230.164 2.28882e-05Z"/><path fill="#9EC8DE" d="M260 24.3727L246.909 40.2964V2.79196L260 24.3727Z"/><path fill="#9BB2C0" d="M260 24.3724L253.455 63.553L246.909 40.296L260 24.3724Z"/><path fill="#EEF8FC" d="M246.909 2.7915L226.12 43.7153L224.968 26.1951L246.909 2.7915Z"/><path fill="#315566" d="M246.909 2.7915V40.2959L226.12 43.7153L246.909 2.7915Z"/><path fill="#2B3C48" d="M246.909 40.2965L237.288 70.5389L226.12 43.7159L246.909 40.2965Z"/><path fill="#D7EFF8" d="M253.455 63.5535L237.288 70.5389L246.909 40.2965L253.455 63.5535Z"/><path fill="#A5E0F5" d="M260 94.2139L237.288 70.5379L253.455 63.5524L260 94.2139Z"/><path fill="#5F8BA2" d="M237.288 70.5378L204.82 81.0139L226.12 43.7148L237.288 70.5378Z"/><path fill="#B3DFE0" d="M239.982 136.886L195.58 107.414L204.82 81.0146L239.982 136.886Z"/><path fill="#E7F5FB" d="M239.982 136.886L204.82 81.0146L237.288 70.5385L239.982 136.886Z"/><path fill="#C4EBED" d="M260 94.2145L239.982 136.886L237.288 70.5385L260 94.2145Z"/><path fill="#469999" d="M260 94.2142L238.633 172.504L239.982 136.885L260 94.2142Z"/><path fill="#ADDEF0" d="M239.982 136.886L238.633 172.504L183.001 190.942L239.982 136.886Z"/><path fill="#315566" d="M249.608 205.189L217.01 247.094L197.055 232.217L249.608 205.189Z"/><path fill="#54959B" d="M249.608 205.19L197.055 232.219L238.633 172.505L249.608 205.19Z"/><path fill="#BDE4F3" d="M197.055 232.218L130 265.323L154.514 234.313L197.055 232.218Z"/><path fill="#95CCD9" d="M147.457 163.076L130 166.848L135.804 151.473L147.457 163.076Z"/><path fill="#8CB4C1" d="M153.55 154.485L147.457 163.075L135.804 151.472L153.55 154.485Z"/><path fill="#469999" d="M151.82 307.437L130 314.561V265.323L151.82 307.437Z"/><path fill="#469999" d="M217.01 247.094L130 265.323L197.055 232.218L217.01 247.094Z"/><path fill="#5DA29E" d="M178.19 299.266L151.82 307.437L130 265.323L160.854 287.059L160.993 287.155L178.19 299.266Z"/><path fill="#A8D2DE" d="M154.514 234.313L130 265.323V235.989L154.514 234.313Z"/><path fill="#231F20" d="M148.74 212.104L130 226.142V214.619L148.74 212.104Z"/><path fill="#2B3C48" d="M176.841 219.123L154.514 234.313L153.55 222.37L176.841 219.123Z"/><path fill="#D7EFF8" d="M238.633 172.505L197.055 232.219L183.001 190.943L238.633 172.505Z"/><path fill="#BDE4F3" d="M197.055 232.218L154.514 234.313L176.841 219.123L197.055 232.218Z"/><path fill="#C7E2F0" d="M197.055 232.219L176.841 219.123L183.001 190.943L197.055 232.219Z"/><path fill="#5C7C92" d="M176.841 219.123L153.55 222.371L130 226.142L148.74 212.104L176.841 219.123Z"/><path fill="#231F20" d="M154.514 234.313L130 235.99L153.55 222.371L154.514 234.313Z"/><path fill="#2B3C48" d="M157.401 168.209L147.457 163.075L153.55 154.485L157.401 168.209Z"/><path fill="#191F23" d="M164.043 190.943L130 214.619L142.387 178.275L142.391 178.271L164.043 190.943Z"/><path fill="#9BB2C0" d="M183.001 190.942L176.841 219.123L148.74 212.104L183.001 190.942Z"/><path fill="#2B3C48" d="M164.043 190.943L148.74 212.104L130 214.619L164.043 190.943Z"/><path fill="#778E9A" d="M183.001 190.942L148.74 212.104L164.043 190.942H183.001Z"/><path fill="#5F8BA2" d="M157.401 168.209L142.391 178.271L147.457 163.076L157.401 168.209Z"/><path fill="#315566" d="M164.043 190.942L142.387 178.275L142.391 178.27L157.401 168.209L164.043 190.942Z"/><path fill="#4E859D" d="M183.001 190.942H164.043L157.401 168.209L153.55 154.485L183.001 190.942Z"/><path fill="#94DCEC" d="M185.888 176.556L153.55 154.485L147.457 119.147L185.888 176.556Z"/><path fill="#E8F7FD" d="M239.982 136.886L183.001 190.942L185.888 176.556L239.982 136.886Z"/><path fill="#D7EFF8" d="M185.888 176.556L183.001 190.942L153.55 154.485L185.888 176.556Z"/><path fill="#fff" d="M188.872 79.0573V89.1144L178.437 90.2667L188.872 79.0573Z"/><path fill="#231F20" d="M197.211 92.0483L189.546 103.153L188.872 89.115L197.211 92.0483Z"/><path fill="#2B3C48" d="M197.211 92.0477L188.872 89.1144V79.0574L197.211 92.0477Z"/><path fill="#BDE4F3" d="M130 48.7479L109.597 73.6056L99.3386 55.1635L98.9908 54.5433L92.6716 43.1788L73.7937 9.22369V9.2195L130 48.7479Z"/><path fill="#677D8B" d="M130 48.7474L112.547 88.1376L109.593 73.6135V73.6093H109.597V73.6051L130 48.7474Z"/><path fill="#8AB4E2" d="M112.547 88.1381H112.543L92.2693 92.0477L109.593 73.614L112.547 88.1381Z"/><path fill="#BBC9D2" d="M112.543 88.1388V119.148L92.2693 92.0485L112.543 88.1388Z"/><path fill="#DEF1F9" d="M83.8005 139.12L64.4197 107.415L80.5906 114.258L83.8005 139.12Z"/><path fill="#DEF1F9" d="M83.5448 102.662L80.5905 114.257L70.4539 103.152L83.5448 102.662Z"/><path fill="#9BB2C0" d="M80.5906 114.257L64.4197 107.414L70.4539 103.152L80.5906 114.257Z"/><path fill="#7C9DB0" d="M70.4538 103.152L64.4196 107.414L55.1797 81.0142L62.7895 92.0476L70.4538 103.152Z"/><path fill="#2B5D7E" d="M109.597 73.6053V73.6095H109.593L87.0062 70.5379L99.3386 55.1632L109.597 73.6053Z"/><path fill="#8FC7D8" d="M112.543 119.148L83.8004 139.12L92.2693 92.0483L112.543 119.148Z"/><path fill="#AFE4F5" d="M112.543 119.147L74.1122 176.556L83.8005 139.119L112.543 119.147Z"/><path fill="#E8F7FD" d="M83.8005 139.119L74.1122 176.556L64.4197 107.414L83.8005 139.119Z"/><path fill="#fff" d="M74.1121 176.556L20.0177 136.885L64.4196 107.414L74.1121 176.556Z"/><path fill="#315566" d="M92.2694 92.0477L81.5628 90.2668L80.5906 79.0574L92.2694 92.0477Z"/><path fill="#C4EBED" d="M92.2694 92.0483L83.8005 139.12L80.5906 114.258L92.2694 92.0483Z"/><path fill="#EEF8FC" d="M92.2694 92.0475L80.5906 114.257L83.5449 102.662L92.2694 92.0475Z"/><path fill="#2B3C48" d="M92.2693 92.0474L83.5448 102.662L81.5628 90.2664L92.2693 92.0474Z"/><path fill="#231F20" d="M83.5448 102.663L70.4539 103.153L81.5627 90.2674L83.5448 102.663Z"/><path fill="#7C9DB0" d="M109.593 73.6098V73.614L92.2693 92.0477L87.0062 70.5382L109.593 73.6098Z"/><path fill="#76ABCC" d="M92.2694 92.0477L80.5906 79.0574L87.0062 70.5382L92.2694 92.0477Z"/><path fill="#469999" d="M87.0061 70.5377L80.5906 79.0569L70.4581 69.1423V69.1381L87.0061 70.5377Z"/><path fill="#231F20" d="M81.5628 90.2667L71.1286 79.0573H80.5906L81.5628 90.2667Z"/><path fill="#5F8BA2" d="M80.5905 79.0569H71.1285L70.4539 69.1423H70.4581L80.5905 79.0569Z"/><path fill="#BDE4F3" d="M71.1286 79.0574V89.1144L62.7896 92.0477L70.4539 69.1428L71.1286 79.0574Z"/><path fill="#2B3C48" d="M81.5627 90.2674L70.4539 103.153L71.1285 89.115L81.5627 90.2674Z"/><path fill="#EFF8FC" d="M92.6716 43.179L59.6719 18.2961L73.7895 9.21544L73.7936 9.21964V9.22383L92.6716 43.179Z"/><path fill="#335666" d="M99.3386 55.1642L87.0062 70.5389L92.6716 43.1795L98.9908 54.544L99.3386 55.1642Z"/><path fill="#677D8B" d="M92.6716 43.1795L87.0061 70.5389L70.4581 69.1393L92.6716 43.1795Z"/><path fill="#fff" d="M92.6716 43.1796L70.4581 69.1394H70.4539L59.6719 18.2968L92.6716 43.1796Z"/><path fill="#DEF1F9" d="M70.4539 69.1394L35.0321 26.1958L59.6719 18.2968L70.4539 69.1394Z"/><path fill="#CEEBF6" d="M70.4539 69.1394L33.8797 43.716L35.0321 26.1958L70.4539 69.1394Z"/><path fill="#9BB2C0" d="M70.458 69.1386V69.1428H70.4538L62.7895 92.0477L55.1797 81.0143L70.4538 69.1386H70.458Z"/><path fill="#BDE4F3" d="M70.4539 69.1382L55.1797 81.0139L33.8797 43.7148L70.4539 69.1382Z"/><path fill="#E8D5E8" d="M35.0321 26.1947L13.0909 2.7911L29.836 0.000261307L35.0321 26.1947Z"/><path fill="#BDE4F3" d="M29.8361 2.28882e-05L59.6731 18.2984L35.0335 26.1974L29.8361 2.28882e-05Z"/><path fill="#9EC8DE" d="M13.0908 2.79196V40.2964L0 24.3727L13.0908 2.79196Z"/><path fill="#9BB2C0" d="M13.0908 40.296L6.54542 63.553L0 24.3724L13.0908 40.296Z"/><path fill="#EEF8FC" d="M35.0321 26.1951L33.8798 43.7153L13.0909 2.7915L35.0321 26.1951Z"/><path fill="#315566" d="M33.8798 43.7153L13.0909 40.2959V2.7915L33.8798 43.7153Z"/><path fill="#2B3C48" d="M33.8798 43.7159L22.7122 70.5389L13.0909 40.2965L33.8798 43.7159Z"/><path fill="#D7EFF8" d="M22.7122 70.5389L6.54546 63.5535L13.0909 40.2965L22.7122 70.5389Z"/><path fill="#A5E0F5" d="M22.7122 70.5379L0 94.2139L6.54542 63.5524L22.7122 70.5379Z"/><path fill="#5F8BA2" d="M55.1797 81.0139L22.7122 70.5378L33.8797 43.7148L55.1797 81.0139Z"/><path fill="#B3DFE0" d="M64.4196 107.414L20.0177 136.886L55.1797 81.0146L64.4196 107.414Z"/><path fill="#E7F5FB" d="M55.1797 81.0146L20.0177 136.886L22.7122 70.5385L55.1797 81.0146Z"/><path fill="#C4EBED" d="M22.7122 70.5385L20.0177 136.886L0 94.2145L22.7122 70.5385Z"/><path fill="#469999" d="M21.367 172.504L0 94.2142L20.0177 136.885L21.367 172.504Z"/><path fill="#ADDEF0" d="M76.9993 190.942L21.367 172.504L20.0177 136.886L76.9993 190.942Z"/><path fill="#315566" d="M62.9446 232.217L42.9897 247.094L10.3923 205.189L62.9446 232.217Z"/><path fill="#54959B" d="M62.9446 232.219L10.3923 205.19L21.367 172.505L62.9446 232.219Z"/><path fill="#96C7D3" d="M130 265.323L62.9446 232.218L105.486 234.313L130 265.323Z"/><path fill="#334D5E" d="M147.457 163.076L142.391 178.271L142.387 178.275L130 214.619V166.848L147.457 163.076Z"/><path fill="#2B3C48" d="M130 166.848V214.619L112.543 163.076L130 166.848Z"/><path fill="#95CCD9" d="M112.544 163.077L130 166.849L124.198 151.474L112.544 163.077Z"/><path fill="#8CB4C1" d="M124.196 151.472L112.543 163.075L106.45 154.485L124.196 151.472Z"/><path fill="#5DA29E" d="M130 265.323L108.18 307.437L81.81 299.266L99.0872 287.096L99.1249 287.071L130 265.323Z"/><path fill="#469999" d="M130 265.323L42.9897 247.094L62.9446 232.218L130 265.323Z"/><path fill="#2B3C48" d="M130 265.323L99.1249 287.071L99.0871 287.096L42.9897 247.094L130 265.323Z"/><path fill="#84B7C7" d="M99.0871 287.095L81.81 299.265L42.9897 247.094L99.0871 287.095Z"/><path fill="#2B3C48" d="M106.45 222.37L105.486 234.313L83.1593 219.123L106.45 222.37Z"/><path fill="#D7EFF8" d="M76.9993 190.943L62.9446 232.219L21.367 172.505L76.9993 190.943Z"/><path fill="#BDE4F3" d="M105.486 234.313L62.9446 232.218L83.1593 219.123L105.486 234.313Z"/><path fill="#C7E2F0" d="M83.1593 219.123L62.9446 232.219L76.9994 190.943L83.1593 219.123Z"/><path fill="#A8D2DE" d="M130 235.989V265.323L105.486 234.313L130 235.989Z"/><path fill="#231F20" d="M130 235.99L105.486 234.313L106.45 222.371L130 235.99Z"/><path fill="#5C7C92" d="M130 226.142L106.45 222.371L83.1593 219.123L111.26 212.104L130 226.142Z"/><path fill="#2B3C48" d="M153.55 222.371L130 235.99V226.142L153.55 222.371Z"/><path fill="#2B3C48" d="M130 226.142V235.99L106.45 222.371L130 226.142Z"/><path fill="#2B3C48" d="M112.543 163.075L102.599 168.209L106.45 154.485L112.543 163.075Z"/><path fill="#231F20" d="M130 214.619V226.142L111.26 212.104L130 214.619Z"/><path fill="#2B3C48" d="M130 214.619L111.26 212.104L95.9569 190.943L130 214.619Z"/><path fill="#9BB2C0" d="M111.26 212.104L83.1594 219.123L76.9994 190.942L111.26 212.104Z"/><path fill="#778E9A" d="M111.26 212.104L76.9994 190.942H95.957L111.26 212.104Z"/><path fill="#5F8BA2" d="M117.613 178.275L102.599 168.209L112.543 163.076L117.613 178.275Z"/><path fill="#191F23" d="M95.9569 190.943L117.613 178.275L112.543 163.076L130 214.619L95.9569 190.943Z"/><path fill="#315566" d="M117.613 178.275L95.9569 190.942L102.599 168.209L117.613 178.275Z"/><path fill="#4E859D" d="M106.45 154.485L102.599 168.209L95.957 190.942H76.9994L106.45 154.485Z"/><path fill="#94DCEC" d="M112.543 119.147L106.45 154.485L74.1122 176.556L112.543 119.147Z"/><path fill="#E8F7FD" d="M76.9993 190.942L20.0177 136.886L74.1121 176.556L76.9993 190.942Z"/><path fill="#D7EFF8" d="M106.45 154.485L76.9994 190.942L74.1122 176.556L106.45 154.485Z"/><path fill="#fff" d="M81.5628 90.2667L71.1286 89.1144V79.0573L81.5628 90.2667Z"/><path fill="#231F20" d="M71.1286 89.115L70.4539 103.153L62.7896 92.0483L71.1286 89.115Z"/><path fill="#2B3C48" d="M71.1286 79.0574V89.1144L62.7896 92.0477L71.1286 79.0574Z"/><path fill="#ADDEF0" d="M147.453 88.1376H112.547L130 48.7474L147.453 88.1376Z"/><path fill="#E9F7FB" d="M147.457 88.1382L130 122.01L112.543 88.1382H147.457Z"/><path fill="#F2FBFE" d="M130 122.01L112.543 119.147V88.1382L130 122.01Z"/><path fill="#F2FBFE" d="M147.457 88.1382V119.147L130 122.01L147.457 88.1382Z"/><path fill="#DEF1F9" d="M124.196 151.473L106.45 154.486L112.543 119.148L124.196 151.473Z"/><path fill="#DEF1F9" d="M153.55 154.486L135.804 151.473L147.457 119.148L153.55 154.486Z"/><path fill="#F7E9F6" d="M147.457 119.148L135.804 151.473L130 166.848L124.196 151.473L112.543 119.148L130 122.01L147.457 119.148Z"/><path fill="#84BFD5" d="M124.198 151.474H135.802L130 166.849L124.198 151.474Z"/><path fill="#2B3C48" d="M217.01 247.094L160.993 287.154L160.854 287.058L130 265.322L217.01 247.094Z"/><path fill="#469999" d="M217.01 247.094L178.19 299.265L160.992 287.154L217.01 247.094Z"/><path fill="#469999" d="M130 314.562V265.323L108.18 307.437L130 314.562Z"/><path fill="#EBF7F9" d="M99.7124 2.7933H160.288L130 48.7482L99.7124 2.7933Z"/><path fill="#D2EEF6" d="M160.288 2.7933L186.206 9.22395L130 48.7482L160.288 2.7933Z"/><path fill="#D2EEF6" d="M99.7124 2.7933L73.7937 9.22395L130 48.7482L99.7124 2.7933Z"/></svg>